# xmcd
#
# Track frame offsets:
#	150
#	17111
#	36983
#	54850
#	72900
#	88838
#	105765
#	121875
#	140850
#	158363
#	178975
#	196563
#	225600
#	247375
#	264188
#	284100
#	302925
#	320725
#
# Disc length: 4554
#
# Revision: 2
# Processed by: cddbd v1.5.1PL0 Copyright (c) Steve Scherf et al.
# Submitted via: audiograbber 1.82.00
# Normalized: r1:DSETVAR1
#
DISCID=0211c812
DTITLE=Various Artist - R&B Love Songs CD 2
DYEAR=1900
DGENRE=
TTITLE0=Blue - Too Close
TTITLE1=Jagged Edge - Let's Get Married
TTITLE2=Tec - Dear Liie
TTITLE3=Des'ree - You Gotta Be
TTITLE4=3LW - No More
TTITLE5=SMV - Right Here
TTITLE6=Wyclef - Gone Till November
TTITLE7=Babyface - Everytime I close My Eyes
TTITLE8=Joe - Stutter
TTITLE9=R Kelly - Your Body's Calling
TTITLE10=Kelis - Good Stuff
TTITLE11=All Saints - Never Ever
TTITLE12=Aaliyah - At Your Best
TTITLE13=Ginuwine - Just Because
TTITLE14=Deborah Cox - Sentimental
TTITLE15=Chantay Savage - I will Survive
TTITLE16=Sunshine Anderson - Heard it all Before
TTITLE17=Lynden David Hall - Sexy Cinderalla
EXTD=
EXTT0=
EXTT1=
EXTT2=
EXTT3=
EXTT4=
EXTT5=
EXTT6=
EXTT7=
EXTT8=
EXTT9=
EXTT10=
EXTT11=
EXTT12=
EXTT13=
EXTT14=
EXTT15=
EXTT16=
EXTT17=
PLAYORDER=
